<svg width="20" height="20" viewBox="0 0 20 20" fill="none" xmlns="http://www.w3.org/2000/svg">
<g clip-path="url(#clip0_1_2)">
<path d="M10.6671 0.537501L13.0083 5.57625C13.14 5.86125 13.3965 6.05875 13.6906 6.10375L18.9259 6.9125C19.0934 6.9387 19.2506 7.01408 19.3798 7.13014C19.5091 7.24621 19.6053 7.39834 19.6575 7.56938C19.7097 7.74042 19.716 7.92357 19.6755 8.09816C19.6349 8.27275 19.5493 8.43185 19.4283 8.5575L15.64 12.48C15.5347 12.5892 15.456 12.724 15.4105 12.8727C15.365 13.0214 15.3541 13.1796 15.3789 13.3338L16.273 18.8725C16.3014 19.0499 16.2826 19.2321 16.2186 19.3988C16.1547 19.5654 16.0482 19.7097 15.9112 19.8153C15.7741 19.921 15.612 19.9839 15.4431 19.9969C15.2742 20.0099 15.1053 19.9724 14.9553 19.8888L10.273 17.2738C10.1427 17.2012 9.99775 17.1632 9.85062 17.1632C9.7035 17.1632 9.55857 17.2012 9.42827 17.2738L4.74592 19.8888C4.59603 19.9721 4.42723 20.0092 4.25853 19.9961C4.08982 19.983 3.92793 19.92 3.79108 19.8144C3.65423 19.7087 3.54786 19.5646 3.48397 19.3982C3.42008 19.2318 3.40119 19.0497 3.42945 18.8725L4.32356 13.3338C4.3486 13.1796 4.3379 13.0213 4.29239 12.8725C4.24688 12.7238 4.16794 12.589 4.06239 12.48L0.274152 8.5575C0.153067 8.43177 0.0674714 8.27257 0.0270266 8.09789C-0.0134183 7.9232 -0.00710181 7.73998 0.045263 7.56891C0.0976277 7.39784 0.193956 7.24572 0.323375 7.12973C0.452793 7.01375 0.610149 6.93851 0.777682 6.9125L6.0118 6.10375C6.15722 6.08105 6.29528 6.02119 6.41414 5.92931C6.53299 5.83743 6.62908 5.71628 6.69415 5.57625L9.03533 0.537501C9.11067 0.375994 9.22697 0.24006 9.37113 0.145025C9.51528 0.0499901 9.68156 -0.000366211 9.85121 -0.000366211C10.0209 -0.000366211 10.1871 0.0499901 10.3313 0.145025C10.4755 0.24006 10.5918 0.375994 10.6671 0.537501V0.537501Z" fill="#FB5980"/>
</g>
<defs>
<clipPath id="clip0_1_2">
<rect width="20" height="20" fill="white"/>
</clipPath>
</defs>
</svg>
