<svg width="90" height="47" viewBox="0 0 490 347" fill="none" xmlns="http://www.w3.org/2000/svg">
<g clip-path="url(#clip0_1_4)">
<path d="M90.7407 300.354H90.6077C88.9783 300.212 87.3541 300.01 85.7379 299.748C85.3063 299.683 84.9171 299.438 84.6559 299.068C84.3947 298.698 84.2829 298.234 84.345 297.776C84.4072 297.319 84.6383 296.907 84.9874 296.63C85.3366 296.354 85.7752 296.235 86.2067 296.301C87.7796 296.544 89.3524 296.733 90.9343 296.871C91.3659 296.89 91.773 297.089 92.0659 297.425C92.3589 297.761 92.5138 298.207 92.4966 298.664C92.4793 299.121 92.2913 299.552 91.974 299.863C91.6566 300.173 91.2359 300.337 90.8043 300.319L90.7377 300.351L90.7407 300.354ZM106.983 299.697C106.552 299.731 106.125 299.582 105.797 299.283C105.469 298.984 105.267 298.559 105.235 298.102C105.203 297.644 105.344 297.192 105.626 296.845C105.909 296.498 106.31 296.284 106.741 296.25C108.306 295.989 109.86 295.662 111.399 295.269C111.608 295.218 111.823 295.21 112.034 295.247C112.245 295.284 112.447 295.365 112.629 295.485C112.81 295.605 112.967 295.762 113.091 295.946C113.215 296.131 113.303 296.34 113.35 296.56C113.449 297.003 113.378 297.47 113.153 297.857C112.928 298.245 112.567 298.523 112.15 298.63C110.525 299.044 108.901 299.386 107.277 299.665L106.983 299.697V299.697ZM70.2727 295.494C70.0837 295.493 69.8964 295.457 69.7191 295.388C68.1614 294.794 66.6229 294.144 65.1065 293.44C64.7279 293.247 64.4342 292.907 64.2866 292.49C64.1391 292.073 64.149 291.613 64.3144 291.204C64.4798 290.795 64.7878 290.469 65.1743 290.295C65.5608 290.12 65.996 290.111 66.389 290.268C67.8499 290.941 69.3622 291.562 70.8413 292.149C71.2028 292.287 71.5064 292.556 71.6984 292.909C71.8904 293.261 71.9583 293.675 71.8902 294.075C71.8221 294.476 71.6223 294.838 71.3263 295.098C71.0302 295.357 70.657 295.498 70.2727 295.494V295.494ZM127.013 292.837C126.643 292.843 126.282 292.714 125.99 292.473C125.698 292.232 125.493 291.893 125.408 291.511C125.322 291.13 125.362 290.729 125.521 290.374C125.68 290.02 125.948 289.734 126.281 289.563C127.693 288.839 129.106 288.028 130.485 287.186C130.67 287.072 130.874 286.999 131.085 286.969C131.297 286.939 131.512 286.954 131.718 287.013C131.924 287.071 132.117 287.172 132.287 287.309C132.456 287.447 132.598 287.618 132.705 287.814C132.812 288.009 132.882 288.225 132.91 288.449C132.938 288.673 132.924 288.901 132.869 289.12C132.814 289.338 132.719 289.543 132.589 289.722C132.459 289.902 132.297 290.052 132.112 290.165C130.667 291.046 129.188 291.889 127.727 292.664C127.484 292.79 127.216 292.849 126.946 292.837H127.013V292.837ZM51.4137 285.494C51.1042 285.499 50.7998 285.41 50.5365 285.238C49.1543 284.308 47.775 283.325 46.423 282.322C46.2478 282.193 46.0983 282.029 45.983 281.839C45.8676 281.649 45.7888 281.437 45.7509 281.215C45.7129 280.993 45.7167 280.765 45.762 280.544C45.8072 280.323 45.8931 280.114 46.0146 279.929C46.1362 279.743 46.291 279.585 46.4704 279.463C46.6497 279.34 46.85 279.257 47.0598 279.217C47.2696 279.176 47.4848 279.18 47.6932 279.228C47.9015 279.276 48.0989 279.367 48.2741 279.496C49.5928 280.48 50.9237 281.409 52.2727 282.325C52.5663 282.526 52.791 282.821 52.9138 283.168C53.0366 283.514 53.0509 283.893 52.9546 284.249C52.8583 284.605 52.6564 284.918 52.3789 285.143C52.1014 285.368 51.763 285.492 51.4137 285.497V285.494ZM144.49 280.547C144.254 280.545 144.021 280.489 143.808 280.382C143.595 280.275 143.406 280.12 143.255 279.929C142.976 279.58 142.837 279.129 142.872 278.673C142.906 278.217 143.109 277.794 143.437 277.497L143.791 277.099C144.865 276.119 145.953 275.1 147.039 274.033C147.196 273.88 147.38 273.76 147.581 273.682C147.781 273.604 147.994 273.568 148.208 273.577C148.421 273.586 148.631 273.639 148.825 273.734C149.019 273.829 149.193 273.963 149.338 274.129C149.483 274.296 149.596 274.49 149.67 274.703C149.744 274.915 149.777 275.141 149.769 275.367C149.76 275.593 149.71 275.815 149.621 276.021C149.531 276.226 149.404 276.411 149.247 276.564C148.113 277.67 147.009 278.721 145.902 279.72L145.53 280.047C145.252 280.342 144.882 280.519 144.49 280.547V280.547ZM34.6146 271.928C34.2117 271.927 33.8236 271.767 33.5257 271.48C32.3098 270.294 31.1059 269.086 29.9566 267.878C29.6853 267.552 29.5405 267.128 29.5513 266.693C29.5621 266.258 29.7276 265.843 30.0147 265.532C30.3018 265.22 30.6893 265.035 31.0997 265.013C31.5101 264.992 31.9131 265.135 32.2281 265.415C33.3654 266.603 34.5359 267.776 35.7216 268.862C35.8807 269.015 36.0094 269.201 36.1005 269.407C36.1915 269.613 36.243 269.837 36.252 270.065C36.261 270.292 36.2273 270.519 36.1529 270.733C36.0785 270.947 35.9648 271.143 35.8184 271.31C35.671 271.498 35.4874 271.651 35.2798 271.758C35.0722 271.865 34.8454 271.924 34.6146 271.931V271.928ZM159.549 264.847C159.234 264.848 158.925 264.752 158.661 264.57C158.397 264.388 158.188 264.129 158.06 263.823C157.932 263.518 157.892 263.18 157.942 262.85C157.993 262.521 158.133 262.214 158.346 261.967C159.419 260.708 160.508 259.436 161.594 258.122C161.735 257.953 161.906 257.814 162.098 257.715C162.289 257.615 162.498 257.557 162.71 257.542C162.923 257.528 163.137 257.558 163.339 257.632C163.541 257.705 163.727 257.819 163.887 257.969C164.047 258.118 164.178 258.299 164.272 258.502C164.366 258.705 164.421 258.925 164.434 259.151C164.448 259.376 164.419 259.603 164.35 259.816C164.281 260.03 164.173 260.228 164.032 260.397C162.928 261.727 161.839 263.018 160.784 264.274C160.621 264.442 160.428 264.572 160.215 264.656C160.003 264.74 159.776 264.776 159.549 264.761V264.844V264.847ZM20.338 255.431C20.0914 255.432 19.8478 255.374 19.6256 255.261C19.4034 255.148 19.2085 254.982 19.0556 254.777C18.0326 253.401 17.0353 252.004 16.0641 250.587C15.939 250.402 15.8494 250.193 15.8005 249.972C15.7516 249.751 15.7444 249.522 15.7792 249.298C15.814 249.074 15.8903 248.859 16.0035 248.666C16.1168 248.473 16.2648 248.306 16.4392 248.174C16.7885 247.911 17.222 247.805 17.6448 247.879C18.0677 247.954 18.4455 248.202 18.6956 248.571C19.6393 249.933 20.5982 251.295 21.6054 252.64C21.7929 252.894 21.9095 253.199 21.9421 253.519C21.9746 253.84 21.9218 254.164 21.7896 254.454C21.6574 254.745 21.4511 254.99 21.194 255.163C20.9369 255.335 20.6394 255.428 20.335 255.431H20.338ZM173.324 247.796C173.017 247.795 172.716 247.703 172.456 247.529C172.196 247.355 171.988 247.107 171.855 246.813C171.723 246.52 171.672 246.192 171.707 245.869C171.743 245.546 171.864 245.24 172.057 244.986C173.079 243.66 174.104 242.333 175.127 240.971C175.26 240.795 175.425 240.648 175.612 240.54C175.799 240.431 176.004 240.362 176.216 240.337C176.429 240.313 176.643 240.333 176.848 240.396C177.053 240.459 177.244 240.564 177.41 240.705C177.577 240.847 177.715 241.022 177.818 241.22C177.921 241.418 177.985 241.635 178.009 241.86C178.032 242.085 178.013 242.312 177.954 242.529C177.894 242.746 177.795 242.948 177.661 243.124L174.576 247.158C174.425 247.356 174.234 247.516 174.018 247.626C173.801 247.736 173.564 247.794 173.324 247.796V247.796ZM8.77161 236.733C8.46887 236.724 8.17448 236.625 7.92167 236.449C7.66886 236.272 7.46771 236.024 7.34093 235.733C6.56358 234.131 5.83161 232.529 5.1813 230.975C5.05263 230.663 5.01364 230.319 5.06923 229.984C5.12481 229.649 5.27249 229.339 5.49375 229.092C5.71502 228.846 6.00001 228.674 6.31301 228.599C6.62601 228.523 6.95308 228.547 7.25321 228.668C7.6555 228.835 7.97914 229.162 8.15457 229.581C8.78976 231.061 9.48544 232.612 10.2325 234.147C10.3611 234.411 10.4232 234.706 10.4127 235.003C10.4022 235.3 10.3194 235.589 10.1725 235.842C10.0256 236.096 9.81945 236.305 9.57403 236.449C9.32861 236.593 9.05222 236.667 8.77161 236.665V236.733ZM186.481 230.235C186.178 230.235 185.88 230.144 185.622 229.974C185.365 229.803 185.157 229.56 185.024 229.271C184.89 228.982 184.836 228.659 184.867 228.339C184.898 228.019 185.013 227.714 185.199 227.46L188.187 223.375C188.312 223.181 188.473 223.017 188.66 222.892C188.847 222.766 189.057 222.683 189.275 222.646C189.494 222.609 189.717 222.621 189.932 222.679C190.146 222.737 190.347 222.841 190.522 222.985C190.697 223.128 190.843 223.308 190.95 223.513C191.057 223.719 191.124 223.945 191.145 224.178C191.167 224.412 191.143 224.647 191.075 224.871C191.008 225.094 190.898 225.3 190.752 225.477L187.764 229.562C187.606 229.758 187.409 229.913 187.187 230.017C186.965 230.122 186.724 230.172 186.481 230.164V230.235V230.235ZM2.06284 215.583C1.66863 215.587 1.28647 215.439 0.987617 215.167C0.688765 214.895 0.493625 214.516 0.438584 214.103C0.210299 212.334 0.0639304 210.555 3.56769e-06 208.771C-0.0135288 208.537 0.0184425 208.301 0.0939495 208.08C0.169457 207.859 0.286902 207.656 0.439056 207.485C0.59121 207.314 0.774853 207.177 0.978682 207.084C1.18251 206.991 1.40221 206.943 1.62426 206.943C1.84631 206.943 2.06602 206.991 2.26984 207.084C2.47367 207.177 2.65732 207.314 2.80947 207.485C2.96162 207.656 3.07907 207.859 3.15458 208.08C3.23008 208.301 3.26205 208.537 3.24852 208.771C3.30297 210.434 3.43908 212.091 3.65383 213.738C3.68279 213.962 3.6696 214.191 3.61503 214.411C3.56045 214.63 3.46555 214.836 3.33577 215.017C3.20598 215.197 3.04385 215.349 2.85864 215.463C2.67344 215.578 2.4688 215.652 2.25642 215.682L2.06284 215.58V215.583ZM199.394 212.466C199.088 212.469 198.787 212.382 198.526 212.213C198.266 212.044 198.055 211.8 197.919 211.51C197.783 211.219 197.728 210.894 197.758 210.572C197.789 210.25 197.905 209.943 198.093 209.688L201.069 205.587C201.198 205.407 201.36 205.256 201.544 205.143C201.728 205.029 201.931 204.956 202.142 204.925C202.353 204.895 202.568 204.909 202.774 204.967C202.98 205.025 203.173 205.125 203.342 205.261C203.512 205.398 203.654 205.569 203.761 205.764C203.868 205.959 203.938 206.174 203.967 206.398C203.995 206.622 203.982 206.849 203.927 207.067C203.873 207.285 203.779 207.49 203.649 207.669L200.646 211.722C200.498 211.926 200.309 212.093 200.092 212.209C199.875 212.326 199.637 212.389 199.394 212.395V212.466V212.466ZM467.049 202.982C466.898 202.998 466.746 202.998 466.595 202.982C466.39 202.919 466.199 202.814 466.032 202.672C465.865 202.531 465.727 202.356 465.624 202.158C465.521 201.96 465.456 201.742 465.433 201.517C465.409 201.292 465.428 201.065 465.488 200.848C465.893 199.329 466.335 197.676 466.77 195.901C466.823 195.682 466.917 195.475 467.045 195.294C467.173 195.113 467.334 194.96 467.518 194.844C467.702 194.729 467.905 194.653 468.117 194.621C468.329 194.589 468.544 194.602 468.752 194.658C468.96 194.715 469.155 194.816 469.326 194.954C469.497 195.093 469.64 195.265 469.748 195.463C469.855 195.66 469.925 195.878 469.952 196.104C469.979 196.33 469.964 196.559 469.907 196.779C469.468 198.503 469.03 200.226 468.606 201.793C468.5 202.141 468.292 202.445 468.012 202.659C467.732 202.874 467.394 202.988 467.049 202.985V202.982ZM212.227 194.677C211.923 194.679 211.624 194.589 211.365 194.419C211.106 194.248 210.898 194.004 210.764 193.714C210.63 193.424 210.576 193.1 210.608 192.779C210.64 192.458 210.757 192.153 210.945 191.899L213.918 187.798C214.05 187.618 214.213 187.468 214.4 187.355C214.586 187.243 214.792 187.17 215.005 187.141C215.217 187.113 215.434 187.129 215.641 187.189C215.848 187.249 216.041 187.351 216.211 187.491C216.381 187.63 216.523 187.803 216.629 188.001C216.735 188.198 216.804 188.416 216.831 188.641C216.858 188.867 216.843 189.096 216.786 189.315C216.73 189.534 216.633 189.74 216.501 189.919L213.51 194.004C213.354 194.192 213.162 194.342 212.946 194.443C212.731 194.545 212.497 194.595 212.261 194.591L212.231 194.677H212.227ZM3.75365 193.453C3.5972 193.478 3.43824 193.478 3.28179 193.453C3.07762 193.386 2.88789 193.277 2.72343 193.133C2.55896 192.988 2.423 192.811 2.32329 192.611C2.22358 192.41 2.16208 192.191 2.1423 191.966C2.12253 191.74 2.14486 191.513 2.20803 191.297C2.68843 189.604 3.23025 187.931 3.83229 186.283C3.90449 186.062 4.01828 185.86 4.16674 185.687C4.3152 185.515 4.49522 185.376 4.69586 185.28C4.89649 185.183 5.11354 185.131 5.33381 185.126C5.55408 185.122 5.77295 185.164 5.97712 185.252C6.18129 185.34 6.36649 185.47 6.52144 185.636C6.6764 185.802 6.79787 186 6.87848 186.217C6.95909 186.434 6.99714 186.666 6.99032 186.9C6.98351 187.133 6.93196 187.362 6.83883 187.574C6.25507 189.144 5.7197 190.73 5.21457 192.297C5.09755 192.601 4.90061 192.864 4.64706 193.053C4.39351 193.243 4.09397 193.352 3.78389 193.367L3.75365 193.453V193.453ZM471.921 181.076C471.819 181.094 471.715 181.094 471.613 181.076C471.191 180.992 470.818 180.735 470.574 180.36C470.33 179.986 470.236 179.524 470.312 179.077C470.606 177.353 470.881 175.732 471.159 174.008C471.182 173.77 471.25 173.54 471.359 173.331C471.469 173.123 471.618 172.94 471.797 172.794C471.976 172.649 472.182 172.544 472.4 172.486C472.619 172.429 472.847 172.419 473.069 172.458C473.292 172.497 473.505 172.584 473.694 172.714C473.884 172.843 474.046 173.013 474.171 173.212C474.296 173.41 474.382 173.634 474.422 173.869C474.462 174.105 474.456 174.346 474.405 174.578C474.133 176.302 473.854 178.026 473.561 179.75C473.475 180.138 473.264 180.482 472.965 180.724C472.666 180.966 472.297 181.09 471.921 181.076V181.076ZM225.219 176.889C224.912 176.891 224.61 176.802 224.349 176.63C224.089 176.459 223.879 176.213 223.745 175.92C223.611 175.628 223.557 175.301 223.591 174.978C223.625 174.655 223.745 174.349 223.936 174.095L226.973 170.026C227.107 169.849 227.272 169.703 227.459 169.594C227.646 169.485 227.852 169.417 228.064 169.392C228.276 169.368 228.491 169.388 228.696 169.451C228.9 169.514 229.092 169.62 229.258 169.761C229.424 169.903 229.563 170.078 229.666 170.276C229.768 170.474 229.833 170.692 229.856 170.917C229.879 171.142 229.86 171.369 229.801 171.586C229.741 171.803 229.641 172.006 229.508 172.182L226.486 176.232C226.338 176.431 226.151 176.592 225.938 176.706C225.725 176.82 225.49 176.882 225.252 176.889H225.222H225.219ZM13.4175 173.544C13.1188 173.54 12.8269 173.449 12.5736 173.281C12.3203 173.114 12.1153 172.875 11.9811 172.593C11.8469 172.31 11.7886 171.994 11.8125 171.678C11.8365 171.363 11.9418 171.061 12.1169 170.804C13.0939 169.407 14.1314 168.01 15.2021 166.649C15.4805 166.299 15.8784 166.082 16.3084 166.043C16.7383 166.005 17.1651 166.149 17.4948 166.444C17.8245 166.738 18.0301 167.16 18.0664 167.615C18.1028 168.071 17.9668 168.523 17.6884 168.872C16.6608 170.157 15.6751 171.479 14.7333 172.836C14.5823 173.055 14.3844 173.234 14.1557 173.357C13.927 173.48 13.6741 173.544 13.4175 173.544V173.544ZM238.479 159.392C238.173 159.388 237.874 159.293 237.616 159.118C237.359 158.943 237.153 158.695 237.022 158.402C236.891 158.109 236.841 157.783 236.878 157.461C236.914 157.139 237.035 156.834 237.227 156.582L240.33 152.583C240.462 152.406 240.627 152.258 240.813 152.148C240.999 152.038 241.205 151.967 241.417 151.941C241.629 151.915 241.844 151.933 242.049 151.995C242.254 152.057 242.446 152.161 242.614 152.301C242.781 152.442 242.921 152.615 243.025 152.813C243.129 153.01 243.195 153.228 243.22 153.452C243.244 153.677 243.227 153.905 243.169 154.122C243.11 154.34 243.012 154.543 242.88 154.72L239.795 158.703C239.642 158.919 239.443 159.094 239.214 159.214C238.986 159.333 238.734 159.394 238.479 159.392V159.392ZM474.78 158.876H474.65C474.221 158.84 473.823 158.625 473.543 158.28C473.263 157.934 473.124 157.485 473.156 157.03C473.286 155.307 473.382 153.583 473.479 151.859C473.479 151.626 473.524 151.394 473.61 151.18C473.697 150.965 473.824 150.771 473.983 150.61C474.143 150.449 474.332 150.323 474.538 150.242C474.745 150.16 474.965 150.124 475.185 150.135C476.077 150.193 476.758 151 476.713 151.946C476.629 153.671 476.521 155.395 476.389 157.117C476.393 157.345 476.355 157.571 476.276 157.783C476.198 157.995 476.08 158.188 475.931 158.352C475.781 158.515 475.602 158.646 475.405 158.736C475.207 158.826 474.995 158.873 474.78 158.876V158.876ZM28.0691 157.412C27.7307 157.415 27.3997 157.306 27.1226 157.1C26.8454 156.894 26.6359 156.602 26.5233 156.264C26.4107 155.925 26.4006 155.559 26.4945 155.214C26.5883 154.87 26.7814 154.565 27.0468 154.342C29.4666 152.272 31.0273 151.17 31.0908 151.119C31.451 150.868 31.8904 150.779 32.3125 150.872C32.7345 150.965 33.1045 151.231 33.3412 151.612C33.5778 151.994 33.6617 152.459 33.5743 152.906C33.487 153.353 33.2356 153.745 32.8754 153.996C32.8754 153.996 31.3661 155.066 29.0945 157.014C28.7976 157.276 28.4222 157.417 28.0359 157.412H28.0691V157.412ZM252.123 142.225C251.813 142.223 251.51 142.126 251.249 141.948C250.989 141.769 250.783 141.515 250.654 141.215C250.526 140.916 250.482 140.584 250.526 140.259C250.57 139.933 250.701 139.628 250.904 139.38C251.963 138.072 253.034 136.762 254.153 135.471C254.294 135.301 254.465 135.163 254.656 135.063C254.848 134.964 255.056 134.905 255.269 134.891C255.482 134.877 255.695 134.907 255.897 134.98C256.099 135.053 256.285 135.168 256.445 135.317C256.606 135.466 256.736 135.648 256.83 135.85C256.924 136.053 256.979 136.274 256.993 136.499C257.006 136.725 256.978 136.951 256.909 137.165C256.84 137.379 256.732 137.576 256.591 137.746C255.517 139.037 254.443 140.328 253.342 141.638C253.186 141.827 252.993 141.977 252.777 142.078C252.561 142.179 252.326 142.229 252.09 142.225H252.12H252.123ZM475.17 136.467C474.755 136.468 474.356 136.301 474.054 136C473.752 135.699 473.57 135.287 473.546 134.849C473.451 133.124 473.332 131.4 473.189 129.678C473.157 129.445 473.17 129.208 473.227 128.981C473.285 128.754 473.385 128.541 473.523 128.356C473.66 128.172 473.832 128.019 474.027 127.907C474.222 127.795 474.437 127.726 474.658 127.705C474.879 127.684 475.102 127.71 475.313 127.784C475.524 127.857 475.719 127.975 475.885 128.13C476.052 128.286 476.187 128.476 476.282 128.689C476.377 128.901 476.43 129.132 476.437 129.367C476.583 131.091 476.713 132.815 476.794 134.538C476.794 135.451 476.126 136.204 475.267 136.262L475.17 136.467V136.467ZM266.273 125.522C265.956 125.522 265.646 125.424 265.381 125.24C265.117 125.056 264.909 124.794 264.783 124.486C264.657 124.179 264.618 123.838 264.672 123.508C264.726 123.177 264.871 122.871 265.087 122.626C266.191 121.351 267.31 120.095 268.432 118.852C268.728 118.521 269.136 118.328 269.566 118.315C269.995 118.302 270.413 118.471 270.725 118.784C271.037 119.098 271.22 119.529 271.232 119.985C271.244 120.44 271.084 120.882 270.789 121.213L267.54 124.971C267.373 125.165 267.166 125.315 266.935 125.41C266.704 125.506 266.456 125.544 266.209 125.522H266.27H266.273ZM472.23 114.302C471.859 114.313 471.495 114.189 471.199 113.951C470.904 113.712 470.694 113.374 470.606 112.992C470.249 111.34 469.837 109.701 469.372 108.08C469.285 107.655 469.353 107.211 469.562 106.836C469.771 106.462 470.106 106.185 470.5 106.061C470.893 105.937 471.316 105.974 471.685 106.166C472.053 106.358 472.34 106.69 472.487 107.096C472.944 108.82 473.382 110.46 473.773 112.181C473.823 112.402 473.832 112.631 473.799 112.855C473.766 113.079 473.691 113.295 473.579 113.488C473.467 113.682 473.32 113.851 473.147 113.984C472.974 114.118 472.777 114.214 472.569 114.267L472.23 114.299V114.302ZM281.006 109.458C280.684 109.457 280.369 109.355 280.101 109.165C279.834 108.975 279.626 108.704 279.504 108.388C279.382 108.072 279.351 107.725 279.416 107.39C279.481 107.056 279.639 106.749 279.869 106.51L283.392 102.889C283.697 102.565 284.111 102.383 284.543 102.382C284.975 102.381 285.39 102.562 285.696 102.885C286.002 103.208 286.174 103.646 286.175 104.104C286.176 104.561 286.005 105 285.7 105.324C284.53 106.494 283.377 107.699 282.207 108.907C282.046 109.091 281.85 109.235 281.631 109.331C281.412 109.426 281.176 109.469 280.939 109.458H281.006V109.458ZM296.553 94.2547C296.222 94.2555 295.899 94.1494 295.627 93.9504C295.355 93.7515 295.146 93.4693 295.029 93.1415C294.913 92.8137 294.893 92.456 294.974 92.1162C295.054 91.7763 295.23 91.4706 295.479 91.2398L299.215 87.7923C299.379 87.6465 299.569 87.5364 299.774 87.4684C299.978 87.4004 300.193 87.3757 300.407 87.3958C300.621 87.4159 300.828 87.4803 301.018 87.5855C301.209 87.6906 301.377 87.8344 301.515 88.0086C301.653 88.1827 301.756 88.384 301.821 88.6007C301.885 88.8174 301.908 89.0454 301.889 89.2717C301.87 89.4979 301.809 89.718 301.71 89.9194C301.611 90.1207 301.475 90.2994 301.311 90.4452C300.077 91.5345 298.84 92.6527 297.605 93.7741C297.305 94.0807 296.904 94.2528 296.486 94.2547H296.55H296.553ZM463.507 92.4124C462.76 90.913 461.979 89.4295 461.151 87.9973C461.026 87.8041 460.939 87.5858 460.897 87.3558C460.854 87.1259 460.856 86.8892 460.903 86.6602C460.95 86.4312 461.041 86.2148 461.169 86.0242C461.298 85.8336 461.462 85.6729 461.651 85.5518C461.841 85.4308 462.051 85.3519 462.271 85.3202C462.49 85.2885 462.713 85.3045 462.926 85.3673C463.139 85.4301 463.338 85.5383 463.51 85.6853C463.682 85.8323 463.824 86.0151 463.927 86.2223C464.789 87.7058 465.551 89.2565 466.38 90.8072C466.512 91.0708 466.577 91.3659 466.569 91.6639C466.561 91.9619 466.48 92.2527 466.334 92.5078C466.189 92.763 465.983 92.9739 465.738 93.12C465.493 93.2661 465.216 93.3424 464.934 93.3416C464.639 93.3388 464.35 93.2508 464.099 93.0871C463.847 92.9234 463.643 92.6901 463.507 92.4124V92.4124ZM313.056 80.2758C312.711 80.2783 312.374 80.165 312.094 79.9521C311.814 79.7392 311.605 79.4377 311.496 79.0909C311.388 78.7441 311.386 78.3699 311.492 78.0221C311.597 77.6743 311.803 77.3707 312.082 77.1551C313.412 76.1234 314.743 75.1237 316.074 74.1241C316.308 73.9491 316.581 73.8427 316.866 73.8157C317.152 73.7886 317.438 73.8418 317.698 73.97C317.957 74.0981 318.18 74.2966 318.344 74.5454C318.508 74.7941 318.606 75.0843 318.63 75.3865C318.655 75.6879 318.604 75.991 318.484 76.2653C318.363 76.5397 318.177 76.7758 317.943 76.95L314.011 79.9297C313.718 80.1647 313.357 80.2867 312.989 80.2758H313.056V80.2758ZM452.591 75.2775C452.376 75.2765 452.164 75.2304 451.966 75.1419C451.768 75.0533 451.589 74.9241 451.438 74.7617C450.352 73.6115 449.2 72.4644 447.978 71.3142C447.818 71.1651 447.687 70.9839 447.593 70.7811C447.498 70.5784 447.443 70.3579 447.429 70.1324C447.415 69.9069 447.444 69.6807 447.512 69.4668C447.581 69.2529 447.689 69.0554 447.83 68.8856C447.971 68.7158 448.142 68.5771 448.333 68.4773C448.524 68.3776 448.733 68.3187 448.945 68.3041C449.158 68.2895 449.372 68.3195 449.574 68.3924C449.776 68.4652 449.962 68.5794 450.123 68.7286C451.357 69.882 452.573 71.106 453.743 72.3651C454.046 72.6886 454.216 73.1256 454.216 73.581C454.216 74.0365 454.046 74.4735 453.743 74.7969C453.582 74.9617 453.391 75.0894 453.181 75.1721C452.971 75.2548 452.748 75.2907 452.524 75.2775H452.591ZM330.759 67.9725C330.401 67.9751 330.052 67.8524 329.767 67.6234C329.482 67.3944 329.276 67.072 329.181 66.7062C329.087 66.3405 329.109 65.9519 329.244 65.6009C329.38 65.2499 329.621 64.9561 329.93 64.7653C331.361 63.8842 332.792 63.0415 334.219 62.2117C334.469 62.059 334.753 61.979 335.041 61.9799C335.329 61.9807 335.612 62.0625 335.861 62.2167C336.11 62.371 336.316 62.5923 336.458 62.8582C336.6 63.124 336.673 63.425 336.669 63.7304C336.668 64.0351 336.591 64.3341 336.446 64.5973C336.301 64.8605 336.093 65.0786 335.844 65.2299C334.431 66.0405 333.034 66.9536 331.639 67.745C331.326 67.9413 330.96 68.0203 330.599 67.9693H330.759V67.9725ZM435.828 61.9041C435.553 61.9051 435.284 61.8276 435.047 61.6798C433.683 60.8853 432.253 60.1099 430.792 59.3858C430.401 59.1895 430.1 58.8369 429.955 58.4054C429.81 57.974 429.832 57.4992 430.017 57.0853C430.203 56.6715 430.536 56.3526 430.943 56.1988C431.35 56.045 431.798 56.0688 432.189 56.2651C433.698 57.0245 435.178 57.8351 436.605 58.6617C436.925 58.8437 437.178 59.1338 437.325 59.4859C437.471 59.838 437.502 60.2318 437.413 60.6047C437.323 60.9775 437.119 61.308 436.832 61.5435C436.544 61.779 436.191 61.9059 435.828 61.9041V61.9041ZM349.654 58.0754C349.273 58.0805 348.903 57.9436 348.608 57.6886C348.312 57.4336 348.111 57.0768 348.039 56.6805C347.967 56.2842 348.028 55.8737 348.213 55.5207C348.398 55.1678 348.694 54.8948 349.049 54.7496C350.577 54.096 352.104 53.4745 353.647 52.8881C354.052 52.7326 354.5 52.7541 354.89 52.9479C355.281 53.1417 355.583 53.4919 355.729 53.9214C355.876 54.351 355.856 54.8247 355.673 55.2384C355.49 55.6521 355.159 55.9718 354.754 56.1273C353.257 56.6977 351.763 57.3 350.268 57.9536C350.032 58.056 349.776 58.0977 349.521 58.0754H349.651H349.654ZM416.334 53.4232C416.177 53.44 416.019 53.44 415.862 53.4232C414.334 52.9426 412.777 52.494 411.234 52.1096C410.825 51.981 410.477 51.6916 410.263 51.3007C410.049 50.9097 409.984 50.4467 410.081 50.0065C410.178 49.5663 410.431 49.1822 410.787 48.9328C411.143 48.6835 411.576 48.5878 411.996 48.6653C413.621 49.0786 415.245 49.5272 416.869 50.027C417.301 50.0907 417.691 50.3334 417.953 50.7018C418.216 51.0701 418.33 51.5338 418.27 51.991C418.209 52.4482 417.98 52.8613 417.632 53.1395C417.285 53.4177 416.847 53.5382 416.415 53.4745L416.334 53.4232V53.4232ZM369.584 51.5104C369.169 51.5358 368.76 51.3914 368.442 51.107C368.125 50.8227 367.922 50.42 367.876 49.982C367.83 49.5441 367.945 49.1042 368.196 48.7531C368.448 48.402 368.817 48.1664 369.227 48.095C370.851 47.7521 372.476 47.4221 374.097 47.1658C374.383 47.118 374.675 47.1511 374.945 47.2616C375.215 47.3722 375.453 47.5562 375.634 47.7952C375.815 48.0343 375.933 48.3197 375.977 48.6227C376.02 48.9257 375.987 49.2355 375.881 49.5207C375.777 49.8051 375.604 50.0553 375.379 50.2465C375.155 50.4377 374.887 50.563 374.602 50.6101C372.978 50.8728 371.468 51.1804 369.893 51.5264C369.79 51.5364 369.686 51.531 369.584 51.5104V51.5104ZM395.46 49.5784H395.345C393.755 49.4732 392.163 49.4091 390.569 49.3862C390.15 49.367 389.754 49.1772 389.464 48.8563C389.174 48.5355 389.012 48.1083 389.012 47.664C389.012 47.2197 389.174 46.7926 389.464 46.4717C389.754 46.1509 390.15 45.961 390.569 45.9419C392.194 45.9419 393.818 46.0284 395.524 46.1341C395.946 46.1614 396.341 46.3616 396.626 46.6923C396.911 47.023 397.064 47.4583 397.051 47.906C397.039 48.3536 396.862 48.7785 396.559 49.0907C396.256 49.4028 395.85 49.5778 395.427 49.5784H395.457H395.46Z" fill="#E6E6E6"/>
<path d="M362.5 321.106H175.874L212.733 2.54077H379.166L396.549 26.8942L362.5 321.106Z" fill="#39475F"/>
<path d="M342.31 321.106H155.666L192.525 2.54077H379.166L342.31 321.106Z" fill="#61728D"/>
<path d="M333.115 260.657H177.174L203.764 30.9473H359.708L333.115 260.657Z" fill="#181F27"/>
<path d="M280.519 160.375L325.578 160.942L324.701 168.337L280.519 167.53V160.375Z" fill="#1E252E"/>
<path d="M155.666 321.106L178.115 343.098L359.708 346.03L362.5 321.106H155.666Z" fill="#39475F"/>
<path d="M299.735 93.1013C299.735 93.1013 307.514 93.6876 311.495 109.217C315.475 124.747 314.111 168.097 314.111 168.097L280.549 167.53C280.549 167.53 263.801 103.011 299.735 93.1013V93.1013Z" fill="#2D394B"/>
<path d="M16.3938 105.228L138.464 0L202.527 83.6848L80.4659 188.907L16.3938 105.228Z" fill="#FB5980"/>
<path d="M83.1487 70.2665L137.805 23.152L148.382 36.9707L93.7261 84.0885L83.1487 70.2665Z" fill="white"/>
<path opacity="0.46" d="M76.44 144.74L92.5858 130.819C93.4407 130.082 94.4243 129.531 95.4803 129.197C96.5364 128.864 97.6442 128.754 98.7403 128.874C99.8365 128.994 100.9 129.342 101.869 129.898C102.838 130.454 103.694 131.206 104.388 132.113C105.793 133.946 106.454 136.296 106.225 138.645C105.996 140.994 104.896 143.15 103.166 144.64L87.0204 158.559C86.1654 159.296 85.1816 159.847 84.1253 160.181C83.069 160.515 81.9608 160.625 80.8643 160.505C79.7678 160.384 78.7044 160.036 77.735 159.48C76.7657 158.924 75.9093 158.171 75.215 157.264C73.8103 155.43 73.1502 153.081 73.3799 150.732C73.6096 148.383 74.7103 146.226 76.44 144.737V144.74ZM112.912 113.309L163.999 69.2765C164.854 68.5398 165.837 67.9889 166.893 67.6553C167.949 67.3216 169.057 67.2117 170.153 67.332C171.249 67.4522 172.312 67.8001 173.282 68.3559C174.251 68.9116 175.107 69.6643 175.801 70.5709C177.205 72.4045 177.864 74.7533 177.635 77.1015C177.405 79.4497 176.305 81.6054 174.576 83.0952L123.498 127.131C122.643 127.868 121.659 128.419 120.603 128.753C119.547 129.087 118.439 129.197 117.342 129.077C116.246 128.957 115.182 128.609 114.213 128.052C113.243 127.496 112.387 126.743 111.693 125.836C110.288 124.003 109.628 121.653 109.858 119.304C110.087 116.955 111.188 114.799 112.918 113.309H112.912Z" fill="white"/>
<path opacity="0.3" d="M54.2539 119.56C60.3896 119.56 65.3635 114.281 65.3635 107.769C65.3635 101.257 60.3896 95.9785 54.2539 95.9785C48.1181 95.9785 43.1442 101.257 43.1442 107.769C43.1442 114.281 48.1181 119.56 54.2539 119.56Z" fill="white"/>
<path opacity="0.3" d="M65.5269 108.82C71.6626 108.82 76.6366 103.541 76.6366 97.0294C76.6366 90.5176 71.6626 85.2387 65.5269 85.2387C59.3912 85.2387 54.4172 90.5176 54.4172 97.0294C54.4172 103.541 59.3912 108.82 65.5269 108.82Z" fill="white"/>
<path d="M299.735 93.1013C299.735 93.1013 282.077 99.8392 288.232 152.634C292.748 191.316 277.494 242.525 254.948 243.147C232.402 243.765 190.819 241.663 190.819 241.663C190.819 241.663 212.472 182.198 207.987 132.264C207.298 125.273 208.086 118.207 210.295 111.579C212.926 103.976 217.817 96.0649 226.912 94.7737C245.073 92.1529 299.735 93.1013 299.735 93.1013V93.1013Z" fill="#BAD6FA"/>
<path d="M178.327 245.521L258.003 243.801C258.003 243.801 245.853 231.01 245.088 198.451L135.491 200.175C137.369 208.574 140.257 216.684 144.084 224.304C147.388 230.843 152.335 236.285 158.378 240.03C164.421 243.775 171.324 245.677 178.324 245.524L178.327 245.521Z" fill="#546F8D"/>
<path d="M236.561 47.5278L233.784 66.8831H314.305L316.743 47.5278H236.561Z" fill="#2D394B"/>
<path opacity="0.48" d="M258.732 276.151C250.045 268.087 236.301 269.673 230.161 280.066C228.611 282.593 227.772 285.534 227.741 288.547C227.741 301.299 236.041 309.662 252.625 306.144C265.281 303.455 270.105 286.686 258.735 276.154L258.732 276.151Z" fill="white"/>
<path d="M445.198 308.796C469.942 308.796 490 287.513 490 261.259C490 235.005 469.942 213.722 445.198 213.722C420.455 213.722 400.397 235.005 400.397 261.259C400.397 287.513 420.455 308.796 445.198 308.796Z" fill="#FB5980"/>
<path d="M223.014 114.542C222.8 114.55 222.587 114.514 222.386 114.434C222.186 114.355 222.002 114.235 221.846 114.08C221.53 113.769 221.344 113.337 221.329 112.879C221.314 112.422 221.47 111.977 221.765 111.643C222.059 111.308 222.467 111.111 222.899 111.095C223.24 111.095 257.208 108.442 275.416 110.166C275.848 110.206 276.246 110.427 276.524 110.779C276.802 111.131 276.937 111.586 276.898 112.043C276.86 112.5 276.652 112.923 276.319 113.217C275.987 113.511 275.558 113.654 275.126 113.613C257.256 111.889 223.467 114.491 223.144 114.526L223.014 114.542ZM220.319 137.864C220.105 137.872 219.892 137.835 219.691 137.756C219.491 137.677 219.307 137.557 219.151 137.402C218.835 137.09 218.649 136.658 218.634 136.201C218.619 135.744 218.775 135.299 219.07 134.964C219.364 134.63 219.772 134.433 220.204 134.417C220.545 134.417 254.51 131.764 272.721 133.487C272.935 133.508 273.143 133.573 273.333 133.678C273.523 133.784 273.692 133.928 273.829 134.102C273.966 134.277 274.07 134.478 274.134 134.695C274.198 134.912 274.221 135.14 274.202 135.367C274.183 135.593 274.121 135.813 274.022 136.014C273.922 136.216 273.786 136.394 273.622 136.54C273.457 136.686 273.267 136.795 273.062 136.863C272.857 136.931 272.642 136.955 272.428 136.935C254.561 135.211 220.787 137.832 220.449 137.848L220.319 137.864ZM220.01 162.099C219.578 162.117 219.158 161.953 218.84 161.643C218.523 161.332 218.335 160.901 218.318 160.444C218.3 159.987 218.455 159.541 218.748 159.205C219.041 158.869 219.448 158.67 219.88 158.651C220.219 158.651 254.201 155.995 272.395 157.722C272.814 157.778 273.197 158.005 273.462 158.354C273.727 158.702 273.854 159.147 273.817 159.593C273.779 160.039 273.58 160.452 273.26 160.746C272.941 161.039 272.527 161.19 272.104 161.167C254.234 159.443 220.464 162.064 220.122 162.083L220.01 162.099V162.099ZM217.847 186.334C217.416 186.35 216.996 186.183 216.68 185.871C216.365 185.559 216.179 185.127 216.164 184.669C216.149 184.212 216.306 183.768 216.601 183.433C216.896 183.099 217.304 182.902 217.735 182.886C218.074 182.886 252.041 180.23 270.25 181.973C270.464 181.993 270.672 182.058 270.862 182.163C271.052 182.269 271.221 182.413 271.358 182.587C271.496 182.761 271.6 182.963 271.664 183.179C271.728 183.396 271.751 183.624 271.732 183.851C271.713 184.077 271.652 184.297 271.553 184.499C271.453 184.7 271.318 184.879 271.153 185.025C270.988 185.17 270.798 185.28 270.594 185.348C270.389 185.416 270.173 185.441 269.96 185.421C252.09 183.697 218.319 186.318 217.977 186.334H217.847V186.334Z" fill="white"/>
</g>
<defs>
<clipPath id="clip0_1_4">
<rect width="490" height="346.03" fill="white"/>
</clipPath>
</defs>
</svg>
